<?xml version="1.0" encoding="utf-8"?>
<!-- Generator: Adobe Illustrator 26.0.2, SVG Export Plug-In . SVG Version: 6.00 Build 0)  -->
<svg version="1.1" id="Calque_1" xmlns="http://www.w3.org/2000/svg" xmlns:xlink="http://www.w3.org/1999/xlink" x="0px" y="0px"
	 viewBox="0 0 547.3 100" style="enable-background:new 0 0 547.3 100;" xml:space="preserve">
<g>
	<path d="M41.5,46.9c7.4,0,13.4-6.1,13.4-13.4S48.9,20,41.5,20H15.4v-11h26.1c13.4,0,24.4,11,24.4,24.4c0,9.4-5.5,18-13.9,22
		c-3.3,1.6-6.8,2.4-10.5,2.4H26.4V86h-11V46.9H41.5z"/>
	<path d="M86.3,9.1h53.2v11H86.3V9.1z M86.3,42h53.2v11H86.3V42z M139.5,86H86.3V75h53.2V86z"/>
	<path d="M159.9,57.9v-11H186c7.4,0,13.4-6.1,13.4-13.4S193.3,20,186,20h-26.1v-11H186c13.4,0,24.4,11,24.4,24.4
		c0,9.4-5.5,18-13.9,22l-3,1.4l17.3,29H198l-16.8-28.1H159.9z"/>
	<path d="M242.2,9.1V86h-11V9.1H242.2z"/>
	<path d="M363.5,20V9h14.8c21.1,0,38.5,17.3,38.5,38.5s-17.3,38.5-38.5,38.5h-14.8v-11h14.8c15.1,0,27.5-12.4,27.5-27.5
		S393.3,20,378.2,20H363.5z"/>
	<path d="M448,9.1V86h-11V9.1H448z"/>
	<path style="display:none;" d="M503.1,9h14.8v11h-14.8c-15.1,0-27.5,12.4-27.5,27.5s12.4,27.5,27.5,27.5h14.8v11h-14.8
		c-21.1,0-38.5-17.3-38.5-38.5S482,9,503.1,9z"/>
	<path d="M464.6,9.1H478L531.9,86h-13.4l-20.2-28.9L478,86h-13.4l26.9-38.5L464.6,9.1z M513.3,35.6l18.6-26.5h-13.4l-11.9,17
		L513.3,35.6z"/>
	<g>
		<defs>
			<filter id="Adobe_OpacityMaskFilter" filterUnits="userSpaceOnUse" x="262.6" y="7.2" width="80.5" height="80.5">
				<feFlood  style="flood-color:white;flood-opacity:1" result="back"/>
				<feBlend  in="SourceGraphic" in2="back" mode="normal"/>
			</filter>
		</defs>
		<mask maskUnits="userSpaceOnUse" x="262.6" y="7.2" width="80.5" height="80.5" id="SVGID_1_">
			<g style="filter:url(#Adobe_OpacityMaskFilter);">
				<circle cx="302.8" cy="82.2" r="16.5"/>
			</g>
		</mask>
		<path style="mask:url(#SVGID_1_);" d="M302.9,7.2c22.2,0,40.3,18,40.3,40.3s-18,40.3-40.3,40.3c-22.2,0-40.3-18-40.3-40.3
			S280.6,7.2,302.9,7.2z M332.2,47.4c0-16.2-13.1-29.3-29.3-29.3c-16.2,0-29.3,13.1-29.3,29.3s13.1,29.3,29.3,29.3
			C319,76.7,332.2,63.6,332.2,47.4z"/>
		<circle cx="302.8" cy="82.2" r="10.6"/>
	</g>
</g>
</svg>
